# xmcd
#
# Track frame offsets:
#	183
#	19810
#	39368
#	65923
#	83808
#	96353
#	116528
#	137755
#	154748
#
# Disc length: 2285 seconds
#
# Revision: 1
# Processed by: cddbd v1.5.2PL0 Copyright (c) Steve Scherf et al.
# Submitted via: audiograbber 1.83.01
#
DISCID=7408eb09
DTITLE=Andy Wilkinson - Texas When Texas Was Free
DYEAR=1990
DGENRE=Western Country
TTITLE0=Texas When Texas Was Free
TTITLE1=The Tumbleweed Christmas Tree
TTITLE2=Dollars For December
TTITLE3=Snowin' Again In Lubbock
TTITLE4=Before The Rain Turns To Snow
TTITLE5=Another Man's Words
TTITLE6=The Tortilla Curtain
TTITLE7=Slaves To The Ways Of The Wind
TTITLE8=Playin' Dominoes
EXTD=
EXTT0=
EXTT1=
EXTT2=
EXTT3=
EXTT4=
EXTT5=
EXTT6=
EXTT7=
EXTT8=
PLAYORDER=
